<svg width="16" height="17" viewBox="0 0 16 17" fill="none" xmlns="http://www.w3.org/2000/svg">
<g id=".disconnect-link">
<path id="Vector" d="M12.8336 11.4672L11.8336 10.4339C12.278 10.3116 12.6391 10.0755 12.9169 9.72552C13.1947 9.37552 13.3336 8.96719 13.3336 8.50052C13.3336 7.94497 13.1391 7.47274 12.7503 7.08385C12.3614 6.69497 11.8891 6.50052 11.3336 6.50052H8.66693V5.16719H11.3336C12.2558 5.16719 13.0419 5.49219 13.6919 6.14219C14.3419 6.79219 14.6669 7.5783 14.6669 8.50052C14.6669 9.13385 14.503 9.71719 14.1753 10.2505C13.8475 10.7839 13.4003 11.1894 12.8336 11.4672ZM10.5669 9.16719L9.23359 7.83385H10.6669V9.16719H10.5669ZM13.2003 15.5672L0.933594 3.30052L1.86693 2.36719L14.1336 14.6339L13.2003 15.5672ZM7.33359 11.8339H4.66693C3.7447 11.8339 2.95859 11.5089 2.30859 10.8589C1.65859 10.2089 1.33359 9.42274 1.33359 8.50052C1.33359 7.73385 1.56693 7.05052 2.03359 6.45052C2.50026 5.85052 3.10026 5.45608 3.83359 5.26719L5.06693 6.50052H4.66693C4.11137 6.50052 3.63915 6.69497 3.25026 7.08385C2.86137 7.47274 2.66693 7.94497 2.66693 8.50052C2.66693 9.05608 2.86137 9.5283 3.25026 9.91719C3.63915 10.3061 4.11137 10.5005 4.66693 10.5005H7.33359V11.8339ZM5.33359 9.16719V7.83385H6.41693L7.73359 9.16719H5.33359Z"/>
</g>
</svg>