<svg xmlns="http://www.w3.org/2000/svg" width="24" height="23" viewBox="0 0 24 23" fill="none">
  <g clip-path="url(#clip0_1347_6334)">
    <path d="M13 1.83459V2.27209C13.2667 2.32209 13.525 2.38459 13.7583 2.44709C14.2917 2.58876 14.6083 3.13876 14.4667 3.67209C14.325 4.20543 13.775 4.52209 13.2417 4.38043C12.7875 4.25959 12.3625 4.17626 11.9833 4.17209C11.6792 4.16793 11.3708 4.24293 11.175 4.35543C11.0875 4.40959 11.0458 4.45543 11.0292 4.48043C11.0167 4.50126 11 4.53043 11 4.5971C11 4.6096 11 4.61793 11 4.62209C11.0083 4.63043 11.0375 4.67209 11.1375 4.73043C11.3792 4.87626 11.7375 4.98876 12.2792 5.15126L12.3167 5.16376C12.7792 5.30126 13.3958 5.48876 13.8958 5.80126C14.4667 6.15959 14.9833 6.75543 14.9958 7.6721C15.0083 8.6096 14.5208 9.29293 13.8833 9.69293C13.6042 9.86376 13.3042 9.98459 12.9958 10.0596V10.5013C12.9958 11.0554 12.55 11.5013 11.9958 11.5013C11.4417 11.5013 10.9958 11.0554 10.9958 10.5013V10.0263C10.6 9.93043 10.2375 9.80543 9.92917 9.70126C9.84167 9.6721 9.75833 9.64293 9.67917 9.61793C9.15417 9.44293 8.87083 8.87626 9.04583 8.35126C9.22083 7.82626 9.7875 7.54293 10.3125 7.71793C10.4208 7.75543 10.5208 7.78876 10.6167 7.82209C11.1833 8.01376 11.5917 8.15126 12.0292 8.16793C12.3625 8.18043 12.6583 8.10126 12.8292 7.99709C12.9083 7.94709 12.9458 7.90543 12.9625 7.87626C12.9792 7.85126 13 7.80126 12.9958 7.70543V7.69709C12.9958 7.65543 12.9958 7.6096 12.8292 7.50543C12.5917 7.35543 12.2333 7.23876 11.7 7.07626L11.6208 7.05126C11.1708 6.91793 10.5792 6.73876 10.1042 6.45126C9.54167 6.11376 9 5.53459 8.99583 4.61376C8.99167 3.65959 9.53333 3.00543 10.15 2.63876C10.4167 2.48043 10.7042 2.37209 10.9917 2.29709L11 1.83459C11 1.28043 11.4458 0.834595 12 0.834595C12.5542 0.834595 13 1.28043 13 1.83459ZM23.675 14.8471C24.2208 15.5888 24.0625 16.6304 23.3208 17.1763L18.0458 21.0638C17.0708 21.7804 15.8958 22.1679 14.6833 22.1679H8H1.33333C0.595833 22.1679 0 21.5721 0 20.8346V18.1679C0 17.4304 0.595833 16.8346 1.33333 16.8346H2.86667L4.7375 15.3346C5.68333 14.5763 6.85833 14.1679 8.07083 14.1679H11.3333H12H14.6667C15.4042 14.1679 16 14.7638 16 15.5013C16 16.2388 15.4042 16.8346 14.6667 16.8346H12H11.3333C10.9667 16.8346 10.6667 17.1346 10.6667 17.5013C10.6667 17.8679 10.9667 18.1679 11.3333 18.1679H16.3583L21.3458 14.4929C22.0875 13.9471 23.1292 14.1054 23.675 14.8471ZM8.06667 16.8346H8.02917C8.04167 16.8346 8.05417 16.8346 8.06667 16.8346Z" fill="#4F545F"/>
  </g>
  <defs>
    <clipPath id="clip0_1347_6334">
      <rect width="24" height="21.3333" fill="white" transform="translate(0 0.833313)"/>
    </clipPath>
  </defs>
</svg>